<?xml version="1.0" encoding="UTF-8"?>
<svg id="Capa_2" data-name="Capa 2" xmlns="http://www.w3.org/2000/svg" viewBox="0 0 110.55 109.66">
  <defs>
    <style>
      .cls-1 {
        fill: #221f20;
      }
    </style>
  </defs>
  <g id="Capa_1-2" data-name="Capa 1">
    <g>
      <polygon class="cls-1" points="0 60.03 0 15.92 17.66 15.92 17.66 24.5 8.88 24.5 8.88 31.53 17.2 31.53 17.2 40 8.88 40 8.88 60.03 0 60.03"/>
      <path class="cls-1" d="M84.27,15.92v8.52c-1.2-1.61-3.02-2.42-5.44-2.42s-4.37.85-5.73,2.54c-1.24,1.55-1.91,3.5-2.01,5.87-.56-.96-1.29-1.89-2.19-2.79-2.47-2.47-5.16-3.67-8.06-3.6-2.9.07-5.62,1.37-8.13,3.89l-10.67,10.67c-.54.54-1.02,1.07-1.45,1.6v-6.54c0-3.56-1-6.39-3-8.5-2-2.1-4.75-3.16-8.24-3.16s-6.24,1.06-8.24,3.16c-2,2.11-3,4.94-3,8.5v15.1c0,7.77,3.75,11.65,11.25,11.65,5.99,0,9.59-2.49,10.79-7.46.47.61,1.01,1.23,1.62,1.84,5.3,5.3,10.7,5.2,16.2-.29l10.67-10.67c1-1,1.8-2.02,2.41-3.08l-.04,7.29c0,2.7.18,4.92.54,6.65.36,1.73,1.1,3.11,2.21,4.16,1.11,1.05,2.76,1.57,4.96,1.57,1.47,0,2.64-.37,3.52-1.1.87-.73,1.57-1.84,2.08-3.31v4.01h8.99V15.92h-8.99ZM31.43,50.63c0,.89-.17,1.59-.51,2.1-.34.51-.87.77-1.59.77s-1.25-.26-1.59-.77c-.34-.51-.51-1.21-.51-2.1v-18.38c0-2.19.7-3.29,2.11-3.29s2.1,1.1,2.1,3.29v18.38ZM63.16,36.37l-13,13c-.63.63-1.25,1.01-1.85,1.13-.61.12-1.16-.07-1.67-.58s-.7-1.07-.58-1.67c.12-.61.49-1.22,1.13-1.85l13-13c1.55-1.55,2.82-1.83,3.81-.84.99.99.71,2.26-.84,3.81ZM84.27,48.58c0,1.47-.14,2.64-.41,3.51-.27.87-.85,1.31-1.74,1.31-1.44,0-2.16-1.57-2.16-4.72v-15.81c0-1.2.15-2.15.44-2.85.29-.7.88-1.06,1.77-1.06.79,0,1.33.38,1.64,1.13.31.75.46,1.68.46,2.78v15.71Z"/>
      <path class="cls-1" d="M20.56,65.65c-1.61-2.44-4.31-3.66-8.08-3.66H0v47.23h9.29v-18.69h3.85c3.71,0,6.27-1.19,7.7-3.58,1.43-2.38,2.14-5.92,2.14-10.61s-.81-8.26-2.42-10.69ZM13.39,79.56c-.17.79-.51,1.4-1.04,1.81-.53.42-1.37.63-2.5.63h-.55v-11.44h1.04c1.32,0,2.2.44,2.64,1.32.44.88.66,2.31.66,4.29,0,1.47-.08,2.6-.25,3.38Z"/>
      <rect class="cls-1" x="23.85" y="61.99" width="9.79" height="47.23"/>
      <path class="cls-1" d="M55.06,71.14c-2.09-1.74-4.8-2.61-8.14-2.61-4.18,0-7.19.84-9.04,2.53-1.85,1.69-2.78,4.51-2.78,8.47v1.32h9.35v-2.42c0-.81.19-1.45.58-1.93.39-.48.83-.72,1.35-.72.58,0,1.09.29,1.51.85.42.57.63,1.39.63,2.45v4.12l-2.64.88c-3.01.95-5.24,1.82-6.71,2.61-1.47.79-2.61,2.02-3.44,3.71s-1.24,4.11-1.24,7.26c0,3.85.58,6.81,1.73,8.88,1.16,2.07,3.29,3.11,6.4,3.11,1.43,0,2.67-.46,3.71-1.37,1.04-.92,1.81-2.2,2.28-3.85v4.78h9.57v-30.68c0-3.19-1.04-5.65-3.13-7.39ZM48.46,99.05c0,.88-.16,1.62-.47,2.23-.31.6-.83.91-1.57.91-1.43,0-2.14-1.19-2.14-3.57v-5.17c0-1.5.34-2.68,1.02-3.52.67-.84,1.73-1.54,3.16-2.09v11.22Z"/>
      <path class="cls-1" d="M59.09,68.97h9.62v5.11c.4-1.65,1.1-2.99,2.09-4.01.99-1.03,2.31-1.54,3.96-1.54,2.71,0,4.72.83,6.02,2.5,1.3,1.67,1.95,4.04,1.95,7.12v31.07h-9.46v-30.08c0-.88-.17-1.63-.52-2.25-.35-.62-.89-.93-1.62-.93-.99,0-1.64.45-1.95,1.35-.31.9-.47,2.1-.47,3.6v28.32h-9.62v-40.25Z"/>
      <rect class="cls-1" x="83.63" y="101.19" width="9.62" height="8.03"/>
      <path class="cls-1" d="M110.55,6.7c0,3.8-2.98,6.78-6.86,6.78s-6.9-2.98-6.9-6.78,3.06-6.7,6.9-6.7,6.86,2.98,6.86,6.7ZM98.5,6.7c0,2.98,2.21,5.35,5.23,5.35s5.11-2.37,5.11-5.31-2.16-5.39-5.15-5.39-5.19,2.41-5.19,5.35ZM102.63,10.21h-1.55V3.51c.61-.12,1.47-.2,2.57-.2,1.27,0,1.84.2,2.33.49.37.29.65.82.65,1.47,0,.74-.57,1.31-1.39,1.55v.08c.65.25,1.02.74,1.22,1.63.2,1.02.33,1.43.49,1.67h-1.67c-.2-.25-.33-.86-.53-1.63-.12-.74-.53-1.06-1.39-1.06h-.74v2.7ZM102.67,6.41h.74c.86,0,1.55-.29,1.55-.98,0-.61-.45-1.02-1.43-1.02-.41,0-.69.04-.86.08v1.92Z"/>
    </g>
  </g>
</svg>